<?xml version="1.0" standalone="no"?>
<!DOCTYPE svg PUBLIC "-//W3C//DTD SVG 20010904//EN"
 "http://www.w3.org/TR/2001/REC-SVG-20010904/DTD/svg10.dtd">
<svg version="1.0" xmlns="http://www.w3.org/2000/svg"
 width="1000.000000pt" height="1000.000000pt" viewBox="0 0 1000.000000 1000.000000"
 preserveAspectRatio="xMidYMid meet">
<metadata>
Created by potrace 1.14, written by Peter Selinger 2001-2017
</metadata>
<g transform="translate(0.000000,1000.000000) scale(0.100000,-0.100000)"
fill="#000000" stroke="none">
<path d="M4682 9989 c-503 -32 -1024 -148 -1502 -334 -855 -334 -1615 -913
-2177 -1660 -569 -756 -912 -1670 -984 -2625 -15 -206 -6 -740 15 -915 79
-625 217 -1106 470 -1630 247 -512 557 -948 966 -1355 313 -313 602 -540 969
-760 1410 -846 3159 -940 4661 -250 534 245 1009 578 1440 1010 404 404 702
819 950 1325 265 540 405 1021 486 1660 21 175 30 709 15 915 -49 649 -213
1247 -501 1835 -247 505 -549 925 -955 1330 -305 306 -599 536 -961 753 -865
520 -1880 766 -2892 701z m1887 -2904 c41 -21 64 -75 56 -133 -17 -123 -28
-150 -378 -962 -1143 -2652 -1139 -2643 -1282 -2860 -94 -143 -236 -285 -330
-331 -65 -32 -76 -34 -171 -34 -88 0 -106 3 -131 21 -41 31 -56 68 -48 121 10
69 68 121 178 161 111 40 177 74 222 113 73 65 207 294 315 540 l42 97 -777
1508 c-428 830 -801 1554 -831 1610 -30 56 -54 104 -54 108 0 3 312 6 694 6
l694 0 432 -920 c238 -506 434 -919 436 -918 8 10 574 1344 609 1437 23 64 55
161 70 216 34 129 62 184 104 212 40 27 107 31 150 8z"/>
</g>
</svg>
